<svg width="16" height="18" viewBox="0 0 16 18" fill="none" xmlns="http://www.w3.org/2000/svg">
<path d="M11.2734 4.2832C12.0279 4.34239 12.6901 4.51955 13.2597 4.81543C13.8293 5.11132 14.3057 5.53367 14.6904 6.08105C14.0102 6.48036 13.5036 6.96824 13.1708 7.54492C12.838 8.12191 12.6718 8.78078 12.6718 9.52051C12.6718 10.0973 12.7787 10.6224 12.9931 11.0957C13.2076 11.569 13.5147 11.9982 13.914 12.3828C14.1063 12.5603 14.3065 12.7165 14.5136 12.8496C14.7206 12.9827 14.9354 13.1006 15.1572 13.2041C15.1128 13.3373 15.0644 13.4747 15.0126 13.6152C14.9609 13.7556 14.9057 13.8924 14.8466 14.0254C14.7135 14.3509 14.565 14.6578 14.4023 14.9463C14.2396 15.2347 14.0623 15.5121 13.8701 15.7783C13.6185 16.1334 13.3887 16.437 13.1816 16.6885C12.9746 16.9398 12.7896 17.1392 12.6269 17.2871C12.3902 17.509 12.135 17.6795 11.8613 17.7979C11.5876 17.9162 11.3103 17.9756 11.0292 17.9756C10.8221 17.9756 10.5965 17.9459 10.3525 17.8867C10.1084 17.8275 9.83782 17.7385 9.54193 17.6201C9.26112 17.5019 8.98767 17.417 8.72162 17.3652C8.45532 17.3135 8.20345 17.2871 7.96674 17.2871C7.70045 17.2871 7.43419 17.3135 7.16791 17.3652C6.90161 17.417 6.62005 17.5018 6.32416 17.6201C6.02837 17.7384 5.76197 17.8309 5.52533 17.8975C5.28871 17.964 5.08171 17.998 4.90424 17.998C4.63812 18.0128 4.36817 17.961 4.09467 17.8428C3.82097 17.7244 3.54275 17.5386 3.26166 17.2871C3.09907 17.1245 2.9071 16.9138 2.68549 16.6553C2.46357 16.3964 2.22606 16.0818 1.97455 15.7119C1.69352 15.3273 1.43819 14.9058 1.20892 14.4473C0.979629 13.9887 0.769402 13.5002 0.577087 12.9824C0.384811 12.4204 0.240635 11.8656 0.14447 11.3184C0.0483057 10.771 -6.10352e-05 10.2375 -6.10352e-05 9.71973C-3.04351e-05 9.11331 0.0670139 8.55089 0.200134 8.0332C0.333285 7.51557 0.532545 7.03452 0.798767 6.59082C1.00582 6.25069 1.24255 5.94018 1.50873 5.65918C1.77501 5.37811 2.07864 5.14154 2.41888 4.94922C2.77395 4.74209 3.13259 4.58598 3.49506 4.48242C3.85739 4.3789 4.23834 4.32048 4.63763 4.30566C4.85947 4.30566 5.1149 4.33875 5.40326 4.40527C5.69175 4.47185 6.01401 4.57193 6.36908 4.70508C6.70927 4.83819 6.9943 4.93832 7.22357 5.00488C7.45267 5.07138 7.61908 5.10448 7.7226 5.10449C7.79657 5.10449 7.95937 5.06714 8.21088 4.99316C8.4623 4.91921 8.80256 4.80132 9.23138 4.63867C9.63084 4.49073 10.0015 4.38633 10.3417 4.32715C10.6818 4.26805 10.9924 4.25363 11.2734 4.2832ZM11.4091 0.376953C11.4091 0.820789 11.3244 1.25414 11.1542 1.67578C10.9841 2.09725 10.7364 2.50025 10.4111 2.88477C10.0116 3.3434 9.57827 3.69869 9.11224 3.9502C8.64631 4.20158 8.15435 4.30512 7.63666 4.26074C7.62192 4.20174 7.61423 4.14637 7.6142 4.09473V3.92773C7.61422 3.48406 7.70336 3.04036 7.8808 2.59668C8.05833 2.15284 8.31787 1.74584 8.65814 1.37598C8.82079 1.18378 9.00921 1.00639 9.22357 0.84375C9.43809 0.68101 9.67128 0.540231 9.92279 0.421875C10.1889 0.288813 10.4401 0.188641 10.6767 0.12207C10.9134 0.055495 11.1509 0.0147945 11.3876 0L11.4091 0.376953Z" fill="#303638"/>
</svg>
