<svg width="14" height="11" viewBox="0 0 14 11" fill="none" xmlns="http://www.w3.org/2000/svg">
<path d="M7.42294 6.70307C7.29339 6.77446 7.14789 6.8119 6.99998 6.8119C6.85207 6.8119 6.70657 6.77446 6.57703 6.70307L0.437592 3.31616V9.65619C0.437939 10.0042 0.576331 10.3378 0.822398 10.5839C1.06846 10.83 1.4021 10.9683 1.75009 10.9687H12.2501C12.5981 10.9683 12.9317 10.83 13.1778 10.5839C13.4239 10.3378 13.5622 10.0042 13.5626 9.65619V3.31616L7.42294 6.70307Z" fill="#ADB5BD"/>
<path d="M12.2505 0.03125H1.75055C1.40256 0.0315975 1.06892 0.16999 0.822855 0.416056C0.576789 0.662122 0.438397 0.99576 0.438049 1.34375V2.4375C0.438034 2.47664 0.44852 2.51506 0.468412 2.54877C0.488304 2.58247 0.516874 2.61022 0.551143 2.62912L6.89489 6.12912C6.92725 6.14697 6.9636 6.15633 7.00055 6.15633C7.0375 6.15633 7.07385 6.14697 7.10621 6.12912L13.45 2.62912C13.4842 2.61022 13.5128 2.58247 13.5327 2.54877C13.5526 2.51506 13.5631 2.47664 13.563 2.4375V1.34375C13.5627 0.99576 13.4243 0.662122 13.1782 0.416056C12.9322 0.16999 12.5985 0.0315975 12.2505 0.03125Z" fill="#ADB5BD"/>
</svg>
