<svg width="18" height="16" viewBox="0 0 18 16" fill="none" xmlns="http://www.w3.org/2000/svg">
<path d="M2.50011 1H15.5001C15.6441 1.05051 15.7747 1.13331 15.8817 1.24206C15.9888 1.35082 16.0696 1.48264 16.1178 1.62742C16.1661 1.77221 16.1806 1.92612 16.1602 2.07737C16.1398 2.22861 16.085 2.37318 16.0001 2.5L11.0001 8V15L7.00011 12V8L2.00011 2.5C1.9152 2.37318 1.86044 2.22861 1.84004 2.07737C1.81963 1.92612 1.83411 1.77221 1.88237 1.62742C1.93063 1.48264 2.01139 1.35082 2.11847 1.24206C2.22554 1.13331 2.35609 1.05051 2.50011 1Z" stroke="white" stroke-width="2" stroke-linecap="round" stroke-linejoin="round"/>
</svg>
