<svg width="19" height="19" viewBox="0 0 19 19" fill="none" xmlns="http://www.w3.org/2000/svg">
<path fill-rule="evenodd" clip-rule="evenodd" d="M18.1314 9.33462C18.1314 8.69529 18.073 8.08003 17.9643 7.48999H9.30511V10.9786H14.2531C14.04 12.106 13.3922 13.061 12.4186 13.7007V15.9634H15.3899C17.1286 14.3931 18.1314 12.0811 18.1314 9.33462Z" fill="#4285F4"/>
<path fill-rule="evenodd" clip-rule="evenodd" d="M9.30509 18.1486C11.7875 18.1486 13.8686 17.3411 15.3899 15.9634L12.4186 13.7007C11.5954 14.2418 10.542 14.5617 9.30509 14.5617C6.91036 14.5617 4.88377 12.9754 4.16072 10.8434H1.0889V13.1802C2.60163 16.1277 5.71085 18.1486 9.30509 18.1486Z" fill="#34A853"/>
<path fill-rule="evenodd" clip-rule="evenodd" d="M4.16077 10.8433C3.97689 10.3022 3.87249 9.72399 3.87249 9.12975C3.87249 8.5355 3.97689 7.95731 4.16077 7.41619V5.07935H1.08895C0.466409 6.29687 0.111115 7.67452 0.111115 9.12975C0.111115 10.585 0.466409 11.9626 1.08895 13.1801L4.16077 10.8433Z" fill="#FBBC05"/>
<path fill-rule="evenodd" clip-rule="evenodd" d="M9.30509 3.69794C10.655 3.69794 11.867 4.15308 12.8199 5.04654L15.4569 2.45977C13.8643 1.00493 11.7832 0.111084 9.30509 0.111084C5.71124 0.111084 2.60163 2.13227 1.0889 5.07941L4.16072 7.41625C4.88377 5.28462 6.91075 3.69794 9.30509 3.69794Z" fill="#EA4335"/>
</svg>
